{"title":"History's Strongest Disciple Kenichi Complete (Anime+OVA) (480p)","uid":7971727,"size":3711724549,"categoryP":"video","categoryS":"tv_shows","magnet":"?xt=urn:btih:c07aa1cfb379743ac051077898f02737969bcc0a&amp;dn=History%27s+Strongest+Disciple+Kenichi+Complete+%28Anime%2BOVA%29+%28480p%29&amp;tr=udp%3A%2F%2Ftracker.openbittorrent.com%3A80&amp;tr=udp%3A%2F%2Fopen.demonii.com%3A1337&amp;tr=udp%3A%2F%2Ftracker.coppersurfer.tk%3A6969&amp;tr=udp%3A%2F%2Fexodus.desync.com%3A6969","seeders":0,"leechers":4,"uploader":"guru9192","files":53,"time":1356826533,"description":"General\n\nFormat                           : MPEG-4\nFormat profile                   : Base Media\nCodec ID                         : isom\nFile size                        : 67.1 MiB\nDuration                         : 24mn 59s\nOverall bit rate                 : 375 Kbps\nWriting application              : Lavf52.64.2\n\nVideo\n\nID                               : 1\nFormat                           : AVC\nFormat/Info                      : Advanced Video Codec\nFormat profile                   : &lt;a class=&quot;__cf_email__&quot; href=&quot;/cdn-cgi/l/email-protection&quot; data-cfemail=&quot;ca88abb9afa6a3a4af8a86f9e4fa&quot;&gt;[email&amp;#160;protected]&lt;/a&gt;&lt;script cf-hash='f9e31' type=&quot;text/javascript&quot;&gt;\n/* &lt;![CDATA[ */!function(){try{var t=&quot;currentScript&quot;in document?document.currentScript:function(){for(var t=document.getElementsByTagName(&quot;script&quot;),e=t.length;e--;)if(t[e].getAttribute(&quot;cf-hash&quot;))return t[e]}();if(t&amp;&amp;t.previousSibling){var e,r,n,i,c=t.previousSibling,a=c.getAttribute(&quot;data-cfemail&quot;);if(a){for(e=&quot;&quot;,r=parseInt(a.substr(0,2),16),n=2;a.length-n;n+=2)i=parseInt(a.substr(n,2),16)^r,e+=String.fromCharCode(i);e=document.createTextNode(e),c.parentNode.replaceChild(e,c)}}}catch(u){}}();/* ]]&gt; */&lt;/script&gt;\nFormat settings, CABAC           : No\nFormat settings, ReFrames        : 1 frame\nCodec ID                         : avc1\nCodec ID/Info                    : Advanced Video Coding\nDuration                         : 24mn 59s\nBit rate mode                    : Variable\nBit rate                         : 300 Kbps\nWidth                            : 624 pixels\nHeight                           : 468 pixels\nDisplay aspect ratio             : 4:3\nFrame rate mode                  : Variable\nFrame rate                       : 23.976 fps\nMinimum frame rate               : 12.500 fps\nMaximum frame rate               : 25.000 fps\nColor space                      : YUV\nChroma subsampling               : 4:2:0\nBit depth                        : 8 bits\nScan type                        : Progressive\nBits/(Pixel*Frame)               : 0.043\nStream size                      : 55.1 MiB (82%)\nWriting library                  : x264 core 107\n\nAudio\n\nID                               : 2\nFormat                           : AAC\nFormat/Info                      : Advanced Audio Codec\nFormat profile                   : LC\nCodec ID                         : 40\nDuration                         : 24mn 59s\nBit rate mode                    : Variable\nBit rate                         : 64.0 Kbps\nChannel(s)                       : 2 channels\nChannel positions                : Front: L R\nSampling rate                    : 22.05 KHz\nCompression mode                 : Lossy\nStream size                      : 11.4 MiB (17%)\n","torrent":{"xt":"urn:btih:c07aa1cfb379743ac051077898f02737969bcc0a","amp;dn":"History%27s+Strongest+Disciple+Kenichi+Complete+%28Anime%2BOVA%29+%28480p%29","amp;tr":["udp%3A%2F%2Ftracker.openbittorrent.com%3A80","udp%3A%2F%2Fopen.demonii.com%3A1337","udp%3A%2F%2Ftracker.coppersurfer.tk%3A6969","udp%3A%2F%2Fexodus.desync.com%3A6969"],"infoHash":"c07aa1cfb379743ac051077898f02737969bcc0a","infoHashBuffer":{"type":"Buffer","data":[192,122,161,207,179,121,116,58,192,81,7,120,152,240,39,55,150,155,204,10]},"announce":[],"urlList":[]}}